HIERARCHY
ROOT pelvis
{
	OFFSET 0.000000 0.000000 0.000000
	CHANNELS 6 Xposition Yposition Zposition Xrotation Yrotation Zrotation
	JOINT l_hip
	{
		OFFSET 0.195211 -0.245059 -0.022011
		CHANNELS 3 Xrotation Yrotation Zrotation
		JOINT l_knee
		{
			OFFSET 0.083896 -0.996307 -0.018298
			CHANNELS 3 Xrotation Yrotation Zrotation
			JOINT l_ankle
			{
				OFFSET -0.031606 -1.048662 -0.119000
				CHANNELS 3 Xrotation Yrotation Zrotation
				JOINT l_foot
				{
					OFFSET 0.063841 -0.149483 0.312863
					CHANNELS 3 Xrotation Yrotation Zrotation
					End Site
					{
						OFFSET 0.000000 0.000000 0.000000
					}
				}
			}
		}
	}
	JOINT r_hip
	{
		OFFSET -0.188785 -0.243354 -0.013119
		CHANNELS 3 Xrotation Yrotation Zrotation
		JOINT r_knee
		{
			OFFSET -0.098896 -1.013926 -0.025127
			CHANNELS 3 Xrotation Yrotation Zrotation
			JOINT r_ankle
			{
				OFFSET 0.038376 -1.049454 -0.114596
				CHANNELS 3 Xrotation Yrotation Zrotation
				JOINT r_foot
				{
					OFFSET -0.060300 -0.126955 0.322518
					CHANNELS 3 Xrotation Yrotation Zrotation
					End Site
					{
						OFFSET 0.000000 0.000000 0.000000
					}
				}
			}
		}
	}
	JOINT spine1
	{
		OFFSET -0.006861 0.282462 -0.060688
		CHANNELS 3 Xrotation Yrotation Zrotation
		JOINT spine2
		{
			OFFSET 0.009796 0.349212 -0.004686
			CHANNELS 3 Xrotation Yrotation Zrotation
			JOINT spine3
			{
				OFFSET 0.005545 0.134239 0.076232
				CHANNELS 3 Xrotation Yrotation Zrotation
				JOINT neck
				{
					OFFSET -0.005369 0.569656 -0.136135
					CHANNELS 3 Xrotation Yrotation Zrotation
					JOINT head
					{
						OFFSET 0.009621 0.170484 0.137338
						CHANNELS 3 Xrotation Yrotation Zrotation
						End Site
						{
							OFFSET 0.000000 0.000000 0.000000
						}
					}
				}
				JOINT l_collar
				{
					OFFSET 0.205981 0.322192 -0.100872
					CHANNELS 3 Xrotation Yrotation Zrotation
					JOINT l_shoulder
					{
						OFFSET 0.233388 0.086823 -0.019950
						CHANNELS 3 Xrotation Yrotation Zrotation
						JOINT l_elbow
						{
							OFFSET 0.687295 -0.032736 -0.075278
							CHANNELS 3 Xrotation Yrotation Zrotation
							JOINT l_wrist
							{
								OFFSET 0.651109 0.024639 0.000120
								CHANNELS 3 Xrotation Yrotation Zrotation
								JOINT l_hand
								{
									OFFSET 0.217934 -0.026487 -0.036124
									CHANNELS 3 Xrotation Yrotation Zrotation
									End Site
									{
										OFFSET 0.000000 0.000000 0.000000
									}
								}
							}
						}
					}
				}
				JOINT r_collar
				{
					OFFSET -0.210726 0.316244 -0.114374
					CHANNELS 3 Xrotation Yrotation Zrotation
					JOINT r_shoulder
					{
						OFFSET -0.244017 0.089684 -0.026814
						CHANNELS 3 Xrotation Yrotation Zrotation
						JOINT r_elbow
						{
							OFFSET -0.672913 -0.035979 -0.055153
							CHANNELS 3 Xrotation Yrotation Zrotation
							JOINT r_wrist
							{
								OFFSET -0.670689 0.023586 -0.009661
								CHANNELS 3 Xrotation Yrotation Zrotation
								JOINT r_hand
								{
									OFFSET -0.219937 -0.019827 -0.028502
									CHANNELS 3 Xrotation Yrotation Zrotation
									End Site
									{
										OFFSET 0.000000 0.000000 0.000000
									}
								}
							}
						}
					}
				}
			}
		}
	}
}
MOTION
Frames: 15
Frame Time: 0.016667
0.000000 0.000000 0.000000 0.000000 0.000000 0.000000 -19.875285 -4.986806 -1.469329 33.813846 1.762728 -5.115058 0.000000 0.000000 0.000000 0.000000 0.000000 0.000000 17.106816 -6.154313 -1.327350 5.288761 3.114764 2.005136 0.000000 0.000000 0.000000 0.000000 0.000000 0.000000 9.807265 9.058781 3.109716 1.872623 0.988231 -1.115969 4.384682 2.035670 -1.608211 16.040233 7.591818 0.553725 22.983486 2.497806 -11.780524 1.971323 1.481023 -28.330844 5.489626 -9.748624 -51.915258 22.662220 -16.282948 3.717120 0.000000 0.000000 0.000000 0.000000 0.000000 0.000000 -2.285522 7.324840 23.283943 -6.643128 23.573289 39.693867 -1.935446 38.664871 -9.454406 0.000000 0.000000 0.000000 0.000000 0.000000 0.000000 
0.000000 0.000000 0.000000 0.000000 0.000000 0.000000 -19.260005 -4.505838 -1.619026 27.909497 2.051331 -4.413073 0.000000 0.000000 0.000000 0.000000 0.000000 0.000000 18.621931 -6.542052 -0.925181 4.786966 2.945917 2.016431 0.000000 0.000000 0.000000 0.000000 0.000000 0.000000 9.605765 9.282797 3.018638 2.501938 0.821408 -1.132820 4.512678 2.113713 -1.498724 16.016098 7.563649 0.834031 22.176919 2.261294 -11.740556 1.781283 1.383044 -28.358706 5.624142 -9.428457 -51.760265 22.169816 -16.272859 3.870016 0.000000 0.000000 0.000000 0.000000 0.000000 0.000000 -2.660643 7.705915 22.967908 -7.571592 23.861019 38.920737 -2.407282 39.587923 -10.025204 0.000000 0.000000 0.000000 0.000000 0.000000 0.000000 
0.000000 0.000000 0.000000 0.000000 0.000000 0.000000 -18.685787 -3.952604 -1.788429 22.039361 2.603280 -3.735541 0.000000 0.000000 0.000000 0.000000 0.000000 0.000000 19.425566 -6.859451 -0.533766 5.192388 2.677853 2.066634 0.000000 0.000000 0.000000 0.000000 0.000000 0.000000 9.398316 9.357687 2.922504 2.659176 0.805592 -1.154188 4.580747 2.243687 -1.467212 15.963821 7.700294 1.276995 21.600986 2.118580 -11.813592 1.644487 1.686026 -28.465072 5.874652 -8.853587 -51.280729 22.052605 -16.517823 3.912793 0.000000 0.000000 0.000000 0.000000 0.000000 0.000000 -3.011101 7.784067 22.901625 -7.851760 24.132517 37.866170 -1.119451 40.230227 -11.671904 0.000000 0.000000 0.000000 0.000000 0.000000 0.000000 
0.000000 0.000000 0.000000 0.000000 0.000000 0.000000 -18.267745 -3.260738 -2.050912 16.342535 3.477197 -2.884116 0.000000 0.000000 0.000000 0.000000 0.000000 0.000000 19.660462 -7.010109 -0.265458 5.948872 2.244433 2.141648 0.000000 0.000000 0.000000 0.000000 0.000000 0.000000 9.467733 9.451748 3.115537 2.257047 1.079412 -1.279592 4.367667 2.486996 -1.651289 15.870627 7.783961 1.616490 21.434545 1.478378 -11.819698 1.543806 1.850116 -28.537017 6.183576 -8.512075 -50.930111 21.817991 -16.336826 3.732068 0.000000 0.000000 0.000000 0.000000 0.000000 0.000000 -3.296587 7.500385 22.752633 -8.196121 24.273477 37.719154 -1.391307 40.960487 -12.115047 0.000000 0.000000 0.000000 0.000000 0.000000 0.000000 
0.000000 0.000000 0.000000 0.000000 0.000000 0.000000 -17.222452 -2.559062 -2.247835 10.382232 4.288444 -1.913921 0.000000 0.000000 0.000000 0.000000 0.000000 0.000000 20.163645 -7.092575 0.051727 6.520279 1.915498 2.148445 0.000000 0.000000 0.000000 0.000000 0.000000 0.000000 9.414237 9.427056 3.078820 2.153662 1.202116 -1.290048 4.284964 2.680340 -1.603050 15.684315 7.947281 1.809785 21.086952 1.081582 -11.943812 1.441412 2.105323 -28.564401 6.412775 -8.184596 -50.831209 21.373738 -16.304596 3.860639 0.000000 0.000000 0.000000 0.000000 0.000000 0.000000 -3.518321 7.548632 22.642051 -8.675400 24.584140 37.443497 -1.761558 41.274070 -12.285254 0.000000 0.000000 0.000000 0.000000 0.000000 0.000000 
0.000000 0.000000 0.000000 0.000000 0.000000 0.000000 -15.526239 -1.771658 -2.490968 4.755710 4.299793 -0.656975 0.000000 0.000000 0.000000 0.000000 0.000000 0.000000 21.055381 -7.332236 0.519242 7.078714 1.709047 2.013682 0.000000 0.000000 0.000000 0.000000 0.000000 0.000000 9.078579 9.501351 3.055635 2.670784 1.229914 -1.387755 4.384904 2.694376 -1.487428 15.563161 8.118683 2.079943 20.445612 1.021249 -12.018419 1.287868 2.039418 -28.645035 6.399090 -7.847708 -50.620743 20.665077 -16.049027 4.062736 0.000000 0.000000 0.000000 0.000000 0.000000 0.000000 -3.669884 8.063997 22.583339 -9.397845 24.798321 37.281416 -2.681573 41.196911 -12.178706 0.000000 0.000000 0.000000 0.000000 0.000000 0.000000 
0.000000 0.000000 0.000000 0.000000 0.000000 0.000000 -14.507734 -1.178610 -2.694400 0.295121 4.538337 0.410705 0.000000 0.000000 0.000000 0.000000 0.000000 0.000000 21.081696 -7.380004 0.545107 8.366870 1.599690 1.924364 0.000000 0.000000 0.000000 0.000000 0.000000 0.000000 9.060407 9.612363 3.119880 2.579662 1.552209 -1.573682 4.272746 2.853975 -1.560244 15.319221 8.252351 2.127952 19.951521 0.892871 -12.081449 1.245049 2.206303 -28.571089 6.481399 -7.576475 -50.726815 19.950522 -15.874589 4.292783 0.000000 0.000000 0.000000 0.000000 0.000000 0.000000 -3.734589 8.237506 22.292667 -9.802709 25.021800 37.464051 -3.347127 41.378359 -12.063276 0.000000 0.000000 0.000000 0.000000 0.000000 0.000000 
0.000000 0.000000 0.000000 0.000000 0.000000 0.000000 -13.815047 -0.523892 -2.813116 -2.264480 5.333107 0.990205 0.000000 0.000000 0.000000 0.000000 0.000000 0.000000 21.067511 -7.410149 0.439748 9.968326 1.522625 1.884858 0.000000 0.000000 0.000000 0.000000 0.000000 0.000000 9.130800 9.698178 2.947667 2.497778 1.822175 -1.745498 4.161679 3.061348 -1.637047 15.043499 8.335513 2.329394 19.555649 1.012757 -12.031178 1.242937 2.353742 -28.383213 6.467679 -7.255116 -50.780363 19.375466 -15.743183 4.325757 0.000000 0.000000 0.000000 0.000000 0.000000 0.000000 -3.712303 8.414662 22.048352 -10.024891 25.149956 37.726258 -3.756406 41.356048 -11.937283 0.000000 0.000000 0.000000 0.000000 0.000000 0.000000 
0.000000 0.000000 0.000000 0.000000 0.000000 0.000000 -13.042613 -0.152459 -2.766310 -2.813018 5.552113 1.108327 0.000000 0.000000 0.000000 0.000000 0.000000 0.000000 21.669474 -7.485763 0.635293 11.149903 1.714231 1.741085 0.000000 0.000000 0.000000 0.000000 0.000000 0.000000 8.952152 9.811041 2.551615 2.526584 2.018967 -1.727946 4.103964 3.226467 -1.613162 14.811384 8.481700 2.735294 19.608209 1.027372 -11.948877 1.230585 2.580994 -28.656595 6.327508 -6.874062 -50.334636 18.718850 -15.084024 4.181160 0.000000 0.000000 0.000000 0.000000 0.000000 0.000000 -3.760334 8.325810 22.453880 -9.864926 25.125726 37.911984 -4.219467 41.134298 -11.671843 0.000000 0.000000 0.000000 0.000000 0.000000 0.000000 
0.000000 0.000000 0.000000 0.000000 0.000000 0.000000 -12.983269 -0.443726 -2.705673 -1.135077 5.624794 0.979323 0.000000 0.000000 0.000000 0.000000 0.000000 0.000000 21.994115 -7.575927 0.556368 12.541824 2.080363 1.716466 0.000000 0.000000 0.000000 0.000000 0.000000 0.000000 8.728008 9.943501 2.495679 2.472922 2.136537 -1.760830 4.078469 3.227344 -1.646725 14.357717 8.381968 2.603262 19.466968 1.187019 -11.938018 1.318192 2.793418 -28.450181 6.045213 -6.624448 -50.742898 17.686714 -14.910802 4.180572 0.000000 0.000000 0.000000 0.000000 0.000000 0.000000 -3.765765 8.352908 22.418176 -9.649439 25.195865 38.316465 -4.303607 41.073648 -11.369392 0.000000 0.000000 0.000000 0.000000 0.000000 0.000000 
0.000000 0.000000 0.000000 0.000000 0.000000 0.000000 -12.742218 -0.648116 -2.481706 1.290074 5.397650 0.549641 0.000000 0.000000 0.000000 0.000000 0.000000 0.000000 22.342901 -7.621376 0.585208 14.103997 2.475642 1.592127 0.000000 0.000000 0.000000 0.000000 0.000000 0.000000 8.249837 9.999078 2.092525 2.639563 2.147132 -1.662365 4.101475 3.232200 -1.617223 13.701067 8.453042 2.752657 19.362301 1.294146 -11.872079 1.358990 2.757338 -28.385010 6.044333 -6.391299 -50.417671 17.871309 -14.084287 3.940445 0.000000 0.000000 0.000000 0.000000 0.000000 0.000000 -3.780497 8.295101 22.736591 -9.174229 25.107360 38.677637 -3.806124 40.914230 -11.240224 0.000000 0.000000 0.000000 0.000000 0.000000 0.000000 
0.000000 0.000000 0.000000 0.000000 0.000000 0.000000 -12.768741 -0.876149 -2.492618 2.262888 7.374400 0.735727 0.000000 0.000000 0.000000 0.000000 0.000000 0.000000 21.855749 -7.314503 0.401161 16.305966 2.775590 1.410231 0.000000 0.000000 0.000000 0.000000 0.000000 0.000000 7.642788 10.087022 2.079651 2.515442 2.498043 -1.783297 4.049439 3.369991 -1.865155 12.826494 8.497397 2.846326 19.730250 1.441750 -11.697755 1.181494 2.942017 -28.469543 5.891923 -6.566500 -50.242638 17.127520 -13.222023 3.650601 0.000000 0.000000 0.000000 0.000000 0.000000 0.000000 -3.617704 8.228362 22.988821 -8.428768 25.347925 39.128019 -3.545042 40.279001 -10.655988 0.000000 0.000000 0.000000 0.000000 0.000000 0.000000 
0.000000 0.000000 0.000000 0.000000 0.000000 0.000000 -11.439635 -0.709311 -2.171841 0.918535 8.797043 0.778934 0.000000 0.000000 0.000000 0.000000 0.000000 0.000000 22.133952 -7.281641 0.682238 18.220659 2.983342 1.016155 0.000000 0.000000 0.000000 0.000000 0.000000 0.000000 6.732582 9.865267 1.616949 3.093038 2.467723 -1.678668 4.108640 3.203453 -1.833114 12.409374 8.731953 2.996610 19.846531 1.847673 -11.530897 1.368260 2.969746 -28.337006 5.447258 -6.634343 -50.122859 15.933404 -12.299254 3.102628 0.000000 0.000000 0.000000 0.000000 0.000000 0.000000 -3.510489 8.046970 23.225053 -7.645553 25.646279 39.687472 -3.490719 39.789976 -9.922189 0.000000 0.000000 0.000000 0.000000 0.000000 0.000000 
0.000000 0.000000 0.000000 0.000000 0.000000 0.000000 -10.064441 -0.675433 -2.279819 -0.111166 8.697051 0.618543 0.000000 0.000000 0.000000 0.000000 0.000000 0.000000 21.368796 -7.086595 0.380043 21.297801 3.092543 0.939954 0.000000 0.000000 0.000000 0.000000 0.000000 0.000000 6.082157 9.518812 1.303645 3.356145 2.539634 -1.642931 3.995239 3.089054 -1.956518 12.019313 8.977804 3.005094 19.894099 2.143296 -11.497895 1.499310 2.905116 -28.298695 5.675971 -6.935401 -49.872655 16.788857 -11.594245 3.005097 0.000000 0.000000 0.000000 0.000000 0.000000 0.000000 -3.288413 7.969818 23.561715 -6.732388 25.754862 40.168063 -2.251312 39.178211 -9.977970 0.000000 0.000000 0.000000 0.000000 0.000000 0.000000 
0.000000 0.000000 0.000000 0.000000 0.000000 0.000000 -8.921449 -0.649675 -2.584924 -0.035237 7.735831 0.254060 0.000000 0.000000 0.000000 0.000000 0.000000 0.000000 20.558698 -7.208525 -0.073442 24.820771 2.752402 1.221570 0.000000 0.000000 0.000000 0.000000 0.000000 0.000000 5.658591 9.141156 0.940759 3.662578 2.504278 -1.570842 3.884844 2.814961 -1.996266 11.609937 8.998726 2.964297 20.098659 2.286778 -11.438015 1.543187 2.507055 -28.494432 5.349149 -7.199090 -49.590902 16.582080 -10.655875 2.462230 0.000000 0.000000 0.000000 0.000000 0.000000 0.000000 -3.053069 7.954474 24.099722 -5.642536 25.564446 40.510738 -1.499220 38.469994 -9.835417 0.000000 0.000000 0.000000 0.000000 0.000000 0.000000 
